<?xml version="1.0" encoding="UTF-8" standalone="no"?>
<svg width="610px" height="610px" viewBox="0 0 610 610" version="1.1" xmlns="http://www.w3.org/2000/svg" xmlns:xlink="http://www.w3.org/1999/xlink">
    <!-- Generator: Sketch Beta 3.6 (26304) - http://www.bohemiancoding.com/sketch -->
    <title>icon</title>
    <desc>Created with Sketch Beta.</desc>
    <defs></defs>
    <g id="Page-1" stroke="none" stroke-width="1" fill="none" fill-rule="evenodd">
        <g id="Group" transform="translate(5.000000, 305.000000)">
            <rect id="Rectangle-1" fill="#FFBF00" x="0" y="0" width="300" height="300"></rect>
            <path d="M149.976887,184.474348 C149.976887,184.474348 154.714878,174.321483 162.928286,160.367725 C171.141694,146.413967 164.644735,132.414237 149.976886,132.414237 C135.309037,132.414237 129.035871,145.388997 136.369796,160.367725 C144.741161,174.321144 149.976887,184.474348 149.976887,184.474348 Z" id="Oval-1" fill="#FFFFFF"></path>
            <path d="M-2.22044605e-16,100 L300,100" id="Path-1-Copy" stroke="#FFFFFF" stroke-width="10"></path>
            <path d="M200,0 L200,300" id="Path-6-Copy-8" stroke="#FFFFFF" stroke-width="10"></path>
            <path d="M0,150 C100,150 100,150 100,200 C100,250 100,250 200,250" id="Path-11" stroke="#FFFFFF" stroke-width="5"></path>
        </g>
        <g id="Group" transform="translate(155.000000, 155.000000)">
            <rect id="Rectangle-1" fill="#FF9C19" x="0" y="0" width="300" height="300"></rect>
            <path d="M149.976887,184.474348 C149.976887,184.474348 154.714878,174.321483 162.928286,160.367725 C171.141694,146.413967 164.644735,132.414237 149.976886,132.414237 C135.309037,132.414237 129.035871,145.388997 136.369796,160.367725 C144.741161,174.321144 149.976887,184.474348 149.976887,184.474348 Z" id="Oval-1" fill="#FFFFFF"></path>
            <path d="M-2.22044605e-16,100 L300,100" id="Path-1-Copy" stroke="#FFFFFF" stroke-width="10"></path>
            <path d="M200,0 L200,300" id="Path-6-Copy-8" stroke="#FFFFFF" stroke-width="10"></path>
            <path d="M0,150 C100,150 100,150 100,200 C100,250 100,250 200,250" id="Path-11" stroke="#FFFFFF" stroke-width="5"></path>
        </g>
        <g id="Group" transform="translate(305.000000, 5.000000)">
            <rect id="Rectangle-1" fill="#FF6633" x="0" y="0" width="300" height="300"></rect>
            <path d="M149.976887,184.474348 C149.976887,184.474348 154.714878,174.321483 162.928286,160.367725 C171.141694,146.413967 164.644735,132.414237 149.976886,132.414237 C135.309037,132.414237 129.035871,145.388997 136.369796,160.367725 C144.741161,174.321144 149.976887,184.474348 149.976887,184.474348 Z" id="Oval-1" fill="#FFFFFF"></path>
            <path d="M-2.22044605e-16,100 L300,100" id="Path-1-Copy" stroke="#FFFFFF" stroke-width="10"></path>
            <path d="M200,0 L200,300" id="Path-6-Copy-8" stroke="#FFFFFF" stroke-width="10"></path>
            <path d="M0,150 C100,150 100,150 100,200 C100,250 100,250 200,250" id="Path-11" stroke="#FFFFFF" stroke-width="5"></path>
        </g>
    </g>
</svg>